<svg width="161" height="29" viewBox="0 0 161 29" fill="none" xmlns="http://www.w3.org/2000/svg">
<path fill-rule="evenodd" clip-rule="evenodd" d="M36.9741 0.152799C36.4196 0.593664 35.2122 1.06025 33.9716 1.31317C32.3701 1.63958 31.274 1.66482 26.3879 1.48744C20.8062 1.28482 16.6135 1.29408 15.4702 1.51144C13.2727 1.92929 11.9625 2.59308 10.6622 3.9473C10.1897 4.43954 9.02426 5.95417 9.02426 6.07625C9.02426 6.10779 9.2049 6.01005 9.42568 5.85897C10.2823 5.27276 12.0638 4.76529 13.899 4.58455C14.8967 4.48632 15.0688 4.48919 21.8355 4.71589C25.9685 4.85427 28.7114 4.86615 29.7953 4.75013C32.4563 4.46543 34.077 3.7297 35.5458 2.13944C36.1177 1.52029 37.2908 0 37.1966 0C37.1799 0 37.0798 0.0687392 36.9741 0.152799ZM66.6748 0.341074C65.9726 0.557615 64.9398 0.731388 63.9985 0.791361L63.1755 0.843878L60.7788 4.94857C59.4607 7.20615 57.6666 10.2787 56.7921 11.7765C55.9175 13.2743 55.0919 14.6625 54.9572 14.8615C54.6338 15.3394 53.9078 15.9936 53.2592 16.3916L52.7355 16.7128L55.2333 16.709C57.588 16.7053 57.7196 16.6973 57.5296 16.5692C57.1182 16.2916 56.7314 15.8135 56.6763 15.5147C56.5908 15.0515 56.8092 14.4936 57.6129 13.122L58.3409 11.8798H61.1164H63.8919L63.9301 12.0642C64.0456 12.6211 64.2338 15.169 64.1842 15.5052C64.1218 15.9286 63.8573 16.3118 63.4553 16.5611C63.214 16.7107 63.2654 16.7131 66.663 16.7134L70.1158 16.7137L69.8663 16.4247C69.5732 16.0852 69.3469 15.6548 69.2215 15.198C69.1438 14.9153 68.4941 10.1615 67.4746 2.41693C67.3204 1.24533 67.1861 0.265453 67.1762 0.239399C67.1663 0.213345 66.9407 0.259062 66.6748 0.341074ZM157.556 0.327474C156.999 0.523368 155.793 0.734584 154.838 0.803323L154.048 0.860264L150.028 7.74238C147.817 11.5275 145.863 14.8163 145.685 15.0507C145.507 15.2852 145.152 15.6455 144.895 15.8515L144.428 16.226L144.247 16.0146C143.722 15.4024 142.522 13.019 141.527 10.6119C140.862 9.00361 140.035 6.82181 140.042 6.69163C140.049 6.55382 144.284 3.2078 145.529 2.35647C146.105 1.96279 147.054 1.40133 147.638 1.10884L148.699 0.577114L145.335 0.575312C143.485 0.574329 141.971 0.589404 141.971 0.608903C141.971 0.62832 142.136 0.987829 142.338 1.40772C142.749 2.26471 142.76 2.51377 142.41 3.03141C142.181 3.37019 142.361 3.22239 138.749 6.04782C137.175 7.27874 135.876 8.31908 135.862 8.35972C135.821 8.47622 136.903 11.7073 137.452 13.1088C137.726 13.8072 138.2 14.904 138.506 15.5462L139.062 16.7137H143.836C146.462 16.7137 148.576 16.684 148.534 16.6477C148.492 16.6115 148.318 16.4782 148.148 16.3515C147.67 15.9952 147.513 15.6863 147.559 15.1893C147.601 14.7281 147.802 14.2957 148.638 12.863L149.189 11.9208L151.982 11.8993L154.774 11.8777L154.817 12.145C154.947 12.9543 155.115 15.2105 155.068 15.5261C155.009 15.9277 154.736 16.317 154.342 16.5611C154.101 16.7107 154.152 16.7131 157.549 16.7134L161 16.7137L160.67 16.333C160.453 16.0814 160.287 15.775 160.182 15.4294C159.999 14.8257 159.982 14.7102 158.881 6.41102C158.425 2.97512 158.033 0.168284 158.009 0.173691C157.985 0.179099 157.781 0.248248 157.556 0.327474ZM41.0926 0.655439C41.0926 0.700501 41.1273 0.737369 41.1698 0.737369C41.2122 0.737369 41.3441 0.906063 41.463 1.1122C41.6204 1.38527 41.6888 1.63548 41.715 2.03391C41.7477 2.5295 41.6177 3.13701 40.329 8.50965C39.5469 11.7705 38.8189 14.6409 38.7113 14.8881C38.447 15.4959 38.0073 16.0884 37.5666 16.4306L37.2019 16.7137H42.6554C45.9799 16.7137 48.4095 16.6796 48.879 16.6264C51.1 16.3746 52.1787 15.7525 52.853 14.3348C53.5184 12.9355 53.6819 11.2363 53.2587 10.1183C52.9945 9.42055 52.1915 8.61313 51.3916 8.241C50.2306 7.70076 49.1729 7.53911 46.7932 7.53821C45.6092 7.53772 45.2019 7.5124 45.2019 7.43915C45.2019 7.38508 45.5002 6.09182 45.8649 4.56513L46.5279 1.78951L48.7857 1.81819C51.2949 1.85014 51.4553 1.88013 51.8289 2.38777C51.9402 2.53901 52.4018 3.30792 52.8547 4.0965C53.3075 4.88507 53.7029 5.55739 53.7334 5.59057C53.7638 5.62367 54.0385 4.55448 54.3438 3.2146C54.649 1.87464 54.9145 0.732208 54.9336 0.675922C54.9613 0.594483 53.5458 0.573509 48.0306 0.573509C43.459 0.573509 41.0926 0.601447 41.0926 0.655439ZM77.7536 0.604561C77.7536 0.621684 77.852 0.852071 77.9722 1.11662C78.2594 1.74847 78.3271 2.99192 78.1211 3.85325C77.7796 5.28218 76.1223 9.70968 75.316 11.3473C74.504 12.9962 73.9097 13.797 73.1712 14.2371C72.6181 14.5666 71.4076 14.5916 70.6333 14.2895C70.3259 14.1695 70.5719 15.4957 70.9662 16.0839C71.3042 16.5883 71.7792 16.82 72.5599 16.8617C74.7475 16.9785 75.4722 15.7719 78.6031 6.80018C79.5749 4.01538 79.7915 3.29817 80.0561 1.9868C80.0932 1.8032 80.0999 1.80246 81.663 1.80246C82.5263 1.80246 83.2327 1.83335 83.2327 1.87103C83.2327 1.90872 82.5452 4.80404 81.7049 8.30499C79.9886 15.4557 79.9982 15.4264 79.1082 16.2642L78.6308 16.7137H82.0639H85.4969L85.297 16.4471C84.7248 15.6843 84.7549 15.2182 85.6059 11.675C85.9846 10.0979 86.625 7.4249 87.029 5.73509C87.8802 2.17417 88.0055 1.85375 88.8562 1.06116L89.3795 0.573509H83.5666C80.3695 0.573509 77.7536 0.587519 77.7536 0.604561ZM91.3721 0.757852C91.3306 0.859281 91.0198 1.95288 90.6815 3.18814C90.3431 4.4234 90.0442 5.49258 90.0173 5.56411C89.9558 5.72706 90.2456 5.47193 92.1399 3.69512C94.0547 1.89905 94.1009 1.87472 95.7041 1.81942C96.8173 1.78099 96.8657 1.78599 96.8223 1.9342C96.7973 2.01949 96.594 2.86345 96.3703 3.80974C94.1601 13.1629 93.7701 14.7366 93.5451 15.2066C93.3219 15.6731 92.8303 16.2266 92.3375 16.5663C92.1466 16.6978 92.3194 16.7053 95.6247 16.7094L99.1134 16.7137L98.8806 16.3655C98.5803 15.9163 98.4611 15.552 98.4611 15.0831C98.4611 14.7619 99.3046 11.1005 101.132 3.49152L101.542 1.7805L102.689 1.82007C104.329 1.87677 104.239 1.80762 105.474 3.94165C106.019 4.88278 106.476 5.64153 106.49 5.62785C106.518 5.59876 107.646 0.73188 107.646 0.637415C107.646 0.602267 104.002 0.573509 99.5471 0.573509H91.4477L91.3721 0.757852ZM109.884 0.757852C110.181 1.08041 110.382 1.64417 110.384 2.16197C110.386 2.5123 110.002 4.25028 108.981 8.51153C108.208 11.7385 107.518 14.543 107.448 14.7439C107.26 15.278 106.895 15.8185 106.4 16.2944L105.964 16.7137L108.679 16.7085L111.393 16.7034L115.979 10.8916C118.502 7.69518 120.578 5.0926 120.593 5.10825C120.609 5.1239 120.385 6.12852 120.097 7.34076C118.19 15.3491 118.28 15.0348 117.67 15.8475C117.511 16.059 117.234 16.3403 117.054 16.4728L116.727 16.7137H120.218H123.709L123.543 16.5294C123.196 16.1431 123.084 15.7998 123.084 15.1161C123.085 14.5445 123.268 13.7006 124.517 8.52071C125.625 3.92649 126.005 2.47559 126.193 2.11641C126.411 1.69833 127.001 1.02167 127.427 0.700255C127.571 0.591944 127.298 0.578425 124.923 0.576131L122.257 0.573509L117.522 6.5598C114.918 9.85224 112.776 12.5344 112.762 12.5202C112.749 12.5059 113.262 10.3006 113.903 7.61948C114.739 4.12075 115.139 2.59431 115.318 2.21211C115.49 1.84555 115.742 1.50718 116.126 1.12654L116.683 0.573509H113.198H109.713L109.884 0.757852ZM130.61 0.645444C130.61 0.684934 130.667 0.765471 130.737 0.824297C130.806 0.883122 130.94 1.08115 131.034 1.26442C131.336 1.85416 131.271 2.42963 130.58 5.28448C130.242 6.68138 129.601 9.34886 129.157 11.2121C128.654 13.3193 128.27 14.7594 128.14 15.0218C127.834 15.641 127.424 16.18 127.045 16.4637L126.711 16.7137H130.194H133.678L133.518 16.5388C133.244 16.2398 133.085 15.7989 133.051 15.2418C133.021 14.764 133.174 14.057 134.47 8.66679C135.268 5.34503 136 2.46929 136.095 2.27626C136.337 1.78706 136.841 1.14456 137.174 0.901229C137.328 0.788575 137.455 0.668712 137.457 0.634957C137.458 0.601202 135.918 0.573509 134.034 0.573509C132.124 0.573509 130.61 0.605298 130.61 0.645444ZM63.4594 7.23679C63.6408 9.04695 63.7747 10.5557 63.7568 10.5894C63.71 10.6778 59.1411 10.6661 59.1411 10.5776C59.1411 10.4414 63.0293 3.84432 63.0796 3.89519C63.107 3.92297 63.2779 5.42671 63.4594 7.23679ZM154.337 7.25719C154.518 9.08324 154.65 10.5938 154.63 10.614C154.551 10.6945 150.028 10.6495 150.028 10.5683C150.028 10.5054 152.456 6.29877 153.754 4.11264C153.842 3.96385 153.935 3.86349 153.961 3.88962C153.987 3.91584 154.156 5.43122 154.337 7.25719ZM32.2698 6.31614C31.8409 6.62018 30.8605 7.00992 30.0052 7.21647C28.3143 7.62489 26.8549 7.69002 22.7218 7.54173C20.5779 7.46488 19.1085 7.41974 15.6716 7.32511C10.6533 7.18689 8.19709 7.86191 6.19523 9.92933C5.73234 10.4074 4.96656 11.3794 4.6263 11.9208L4.47184 12.1666L4.70663 12.0126C5.2418 11.6613 5.49054 11.5364 6.11788 11.3036C6.9158 11.0074 7.90388 10.7802 8.97986 10.6452C9.91226 10.5282 12.7382 10.5659 19.0154 10.7792C22.2749 10.8899 23.3488 10.8991 24.4138 10.8252C27.6732 10.5994 29.2578 9.99397 30.8638 8.36095C31.4327 7.78252 32.6935 6.17276 32.6236 6.1141C32.6063 6.0996 32.447 6.19046 32.2698 6.31614ZM47.6071 9.01737C48.2016 9.14698 48.6905 9.49715 48.9045 9.94646C49.1573 10.4775 49.1452 11.5363 48.8735 12.6672C48.5076 14.1901 48.0221 14.9606 47.2023 15.3192C46.424 15.6596 44.5383 15.6911 43.9352 15.3738C43.6263 15.2113 43.5098 15.0153 43.5098 14.6582C43.5098 14.5132 43.7999 13.1869 44.1544 11.711C44.5089 10.2349 44.799 9.00549 44.799 8.97886C44.799 8.89398 47.1919 8.92675 47.6071 9.01737ZM27.8785 12.2607C27.2816 12.7031 26.2043 13.104 24.9376 13.3551C23.532 13.6338 22.3138 13.6927 19.7775 13.6045C14.6182 13.4252 13.2938 13.3955 10.4343 13.3955C7.26936 13.3955 6.71775 13.4402 5.33535 13.8084C3.4094 14.3213 1.9826 15.3689 0.576908 17.3023C0.259609 17.7386 0 18.1153 0 18.1393C0 18.1633 0.161228 18.0723 0.358231 17.9371C1.19354 17.3638 2.79478 16.8771 4.55242 16.6621C5.69519 16.5223 6.59858 16.5325 13.0932 16.7584C18.9001 16.9603 20.7057 16.9127 22.4893 16.5108C24.0933 16.1493 25.1208 15.5922 26.2533 14.4702C26.8024 13.9261 27.8962 12.5867 28.1511 12.1461C28.2312 12.0076 28.2054 12.0185 27.8785 12.2607ZM39.179 21.4379L38.8365 21.4751V24.3379V27.2007H39.1161H39.3957L39.4183 26.1561L39.4408 25.1115L40.448 25.0688C41.6497 25.018 42.0841 24.8555 42.3598 24.3537C42.6954 23.743 42.6936 22.6226 42.3562 22.1047C42.0483 21.632 41.5781 21.4629 40.4788 21.4298C39.9522 21.4139 39.3673 21.4175 39.179 21.4379ZM60.2289 21.5C59.8902 21.6541 59.7677 21.9081 59.7225 22.5492L59.6835 23.1042H59.4123C59.1647 23.1042 59.1411 23.1256 59.1411 23.35C59.1411 23.5763 59.1635 23.5958 59.4231 23.5958H59.7051V25.3983V27.2007H59.9855H60.266L60.2877 25.4188L60.3094 23.6368L60.8313 23.5958C61.3235 23.5571 61.3532 23.5432 61.353 23.35C61.3529 23.1543 61.3289 23.1441 60.811 23.1209L60.2691 23.0968V22.8337C60.2691 22.4828 60.403 22.0255 60.5296 21.9438C60.5857 21.9075 60.822 21.8773 61.0547 21.8765C61.4468 21.8754 61.4777 21.8609 61.4777 21.6792C61.4777 21.5714 61.4204 21.4608 61.3503 21.4334C61.1292 21.3472 60.4803 21.3857 60.2289 21.5ZM78.5484 21.612C78.0711 21.8641 77.6682 22.3819 77.4929 22.9685C77.4306 23.1766 77.3925 23.7551 77.3948 24.4561C77.3981 25.4497 77.423 25.6659 77.5811 26.0722C77.7942 26.6194 78.2584 27.0712 78.7565 27.2162C79.1742 27.3378 80.1572 27.3317 80.7619 27.2038C81.2153 27.1078 81.2302 27.0964 81.1784 26.8864C81.1489 26.7666 81.1151 26.6588 81.1034 26.647C81.0917 26.6351 80.7992 26.6653 80.4535 26.7142C79.0535 26.9123 78.2898 26.5405 78.0831 25.5605C77.9544 24.9502 77.9736 23.6182 78.1182 23.123C78.3584 22.3007 78.8503 21.9262 79.6874 21.9286C80.151 21.9299 80.4007 21.9988 80.9173 22.2673C80.9512 22.2849 81.0354 22.1617 81.1045 21.9935C81.2077 21.7426 81.2111 21.6755 81.1236 21.6202C80.9176 21.4901 80.2373 21.3837 79.6121 21.3837C79.0784 21.3837 78.9137 21.419 78.5484 21.612ZM112.76 21.5141C111.661 21.911 111.119 23.2827 111.347 25.0912C111.493 26.2531 111.79 26.7984 112.451 27.124C112.928 27.3587 113.775 27.376 114.403 27.1639C114.724 27.0554 114.878 27.0397 115.007 27.1026C115.102 27.149 115.262 27.2051 115.361 27.2272L115.543 27.2673V25.8412V24.4151H115.261H114.979V25.3964C114.979 26.3323 114.97 26.3834 114.792 26.5021C114.31 26.8234 113.109 26.8015 112.641 26.4629C112.193 26.1384 112.053 25.7235 112.014 24.6121C111.97 23.3763 112.104 22.8123 112.549 22.3599C113.05 21.8505 114.015 21.7503 114.754 22.1309C114.918 22.2156 115.068 22.2849 115.087 22.2849C115.158 22.2849 115.317 21.7907 115.279 21.688C115.172 21.4064 113.398 21.2838 112.76 21.5141ZM66.9759 24.3077L66.997 27.1598L67.2992 27.1852L67.6014 27.2106V25.563V23.9155L67.9438 23.7575C68.5192 23.4918 69.3451 23.5745 69.5098 23.9141C69.5451 23.9869 69.5925 24.7469 69.615 25.6031L69.656 27.1598L69.9643 27.1856L70.2725 27.2114L70.2463 25.5879C70.2173 23.7931 70.1758 23.6142 69.7155 23.2992C69.2522 22.982 68.4823 22.9844 67.7451 23.3052C67.6197 23.3598 67.6047 23.2783 67.5839 22.436L67.5611 21.5066L67.2579 21.4811L66.9547 21.4556L66.9759 24.3077ZM88.8733 23.8981C88.8739 27.0772 88.9298 27.2827 89.7947 27.2827C90.2721 27.2827 90.3389 27.2386 90.2696 26.9692C90.2343 26.8323 90.163 26.7911 89.961 26.7911C89.8165 26.7911 89.6581 26.7418 89.609 26.6817C89.5491 26.6082 89.5128 25.7416 89.4985 24.0395L89.4771 21.5066L89.175 21.4812L88.8728 21.4557L88.8733 23.8981ZM94.2713 24.3332V27.2007H94.4969C94.6209 27.2007 94.7636 27.1589 94.8139 27.1077C94.8821 27.0384 94.9937 27.0516 95.2531 27.1595C95.6877 27.3405 96.4083 27.3509 96.7288 27.1808C97.4514 26.7971 97.8036 25.8284 97.6435 24.6646C97.4675 23.3855 96.5767 22.7821 95.4403 23.1722C95.1763 23.2628 94.9322 23.3193 94.8978 23.2977C94.8634 23.2761 94.8353 22.8551 94.8353 22.362V21.4656H94.5533H94.2713V24.3332ZM41.3894 22.041C41.7443 22.1687 41.9125 22.47 41.956 23.0559C42.0014 23.6665 41.8582 24.1337 41.5559 24.3619C41.3695 24.5025 41.1805 24.5346 40.3674 24.5641L39.4006 24.5992V23.2837V21.9681L39.6221 21.9286C39.9696 21.8668 41.1058 21.939 41.3894 22.041ZM50.6204 22.2055C50.4661 22.2686 50.4392 22.341 50.4392 22.692V23.1042H50.1571C49.8975 23.1042 49.8751 23.1237 49.8751 23.35C49.8751 23.5752 49.8982 23.5958 50.151 23.5958H50.4268L50.4532 25.1871C50.4789 26.7428 50.4838 26.783 50.6756 26.9904C50.9236 27.2585 51.392 27.3891 51.8535 27.3187C52.1624 27.2716 52.2118 27.2371 52.2118 27.0685C52.2118 26.8883 52.18 26.873 51.8053 26.873C51.4811 26.873 51.3587 26.8323 51.201 26.6719C51.0061 26.4737 51.0032 26.4501 51.0032 25.037V23.6033L51.547 23.5791C52.0671 23.5559 52.0909 23.5459 52.0909 23.35C52.0909 23.1541 52.0671 23.1441 51.547 23.1209L51.0032 23.0968V22.6089C51.0032 22.0959 50.9712 22.0623 50.6204 22.2055ZM64.7208 22.1789C64.5597 22.2105 64.5396 22.2632 64.5396 22.6544V23.0943L64.2374 23.1198C63.977 23.1417 63.9318 23.1756 63.9103 23.3653C63.8874 23.5664 63.9116 23.5875 64.1923 23.6111L64.4993 23.6368L64.5396 25.1934C64.5818 26.8235 64.6243 27.0261 64.9644 27.2144C65.1424 27.313 66.1932 27.3491 66.2811 27.2596C66.3063 27.2341 66.303 27.1366 66.2738 27.043C66.2296 26.9012 66.1548 26.873 65.8233 26.873C65.5333 26.873 65.3823 26.8287 65.2647 26.7092C65.1155 26.5574 65.1036 26.4361 65.1036 25.0706V23.5958H65.6273H66.151V23.35V23.1042H65.6273H65.1036V22.6127C65.1036 22.1031 65.1042 22.1038 64.7208 22.1789ZM44.2072 23.1418C43.498 23.3989 43.1726 23.969 43.1231 25.0415C43.0705 26.1796 43.3555 26.8282 44.0735 27.2046C44.3578 27.3536 45.099 27.3303 45.5092 27.1595C45.7686 27.0516 45.8802 27.0384 45.9484 27.1077C45.9987 27.1589 46.1413 27.2007 46.2654 27.2007H46.491V25.1525C46.491 22.9427 46.5022 22.9925 46.0614 23.2262C45.8553 23.3356 45.7875 23.3316 45.359 23.1848C44.8064 22.9955 44.629 22.9889 44.2072 23.1418ZM49.0291 23.0765C48.9405 23.0957 48.7159 23.1674 48.5302 23.2357C48.2226 23.3489 48.1739 23.3477 47.9869 23.2231C47.5478 22.9305 47.5336 22.9946 47.5572 25.1709L47.5788 27.1598L47.8809 27.1852L48.1831 27.2106V25.5692V23.9277L48.4292 23.7983C48.5644 23.7272 48.8545 23.6473 49.0737 23.621C49.463 23.5741 49.4723 23.5666 49.4723 23.2977C49.4723 23.0131 49.4259 22.9899 49.0291 23.0765ZM56.0886 23.1453C55.3317 23.3853 54.9221 24.1125 54.929 25.204C54.9379 26.6054 55.5511 27.3086 56.7642 27.3086C57.6485 27.3086 58.2319 26.9138 58.4854 26.1439C58.6044 25.7824 58.6034 24.6461 58.4836 24.2396C58.2023 23.285 57.1559 22.8068 56.0886 23.1453ZM72.2552 23.1342C71.74 23.3291 71.5417 23.5115 71.3226 23.9919C71.1473 24.3763 71.1107 24.5758 71.109 25.1525C71.1069 25.9234 71.2189 26.3434 71.5257 26.7141C71.9381 27.2125 72.6818 27.4192 73.5541 27.278C74.1619 27.1795 74.2465 27.1242 74.1692 26.8763C74.1227 26.7276 74.0744 26.7081 73.8674 26.7543C73.3818 26.8628 72.6038 26.8103 72.3355 26.6509C72.069 26.4926 71.844 26.1606 71.764 25.8079L71.7176 25.6031H72.6205C73.6082 25.6031 73.9037 25.5031 74.2294 25.0588C74.4414 24.7695 74.4436 24.1089 74.2337 23.7425C73.922 23.1983 72.9091 22.887 72.2552 23.1342ZM82.8701 23.1422C82.45 23.2975 81.9813 23.8128 81.8511 24.2625C81.7942 24.4591 81.7489 24.9155 81.7504 25.2768C81.7539 26.0515 82.0104 26.7353 82.4046 27.0207C82.8972 27.3775 83.6572 27.4112 84.3166 27.1057C84.477 27.0314 84.5484 27.0311 84.6207 27.1046C84.6727 27.1575 84.8167 27.2007 84.9408 27.2007H85.1664V25.1909C85.1664 22.9944 85.1525 22.9336 84.7161 23.2243C84.5287 23.3492 84.4801 23.3508 84.2102 23.241C83.7316 23.0463 83.2296 23.0093 82.8701 23.1422ZM87.3419 23.1857C86.9365 23.3303 86.8764 23.3331 86.636 23.2197C86.4915 23.1515 86.3374 23.1182 86.2936 23.1458C86.2446 23.1766 86.2139 23.9666 86.2139 25.1983V27.2007H86.4942H86.7745L86.7963 25.5826L86.8182 23.9645L87.1777 23.7802C87.3754 23.6787 87.6745 23.5958 87.8424 23.5958C88.1375 23.5958 88.1477 23.5863 88.1477 23.3091C88.1477 22.9634 88.02 22.9438 87.3419 23.1857ZM91.6526 23.0933C90.8568 23.3055 90.4579 24.0461 90.7529 24.7639C90.8948 25.1091 91.1458 25.2592 91.8138 25.3983C92.6669 25.5759 92.917 25.8174 92.7881 26.3394C92.6837 26.7624 92.2299 26.8688 90.9677 26.7664C90.8053 26.7533 90.7616 26.7917 90.7418 26.9648C90.7181 27.1728 90.7362 27.1824 91.3213 27.2709C91.9212 27.3616 92.5631 27.303 92.8844 27.1281C93.5065 26.7895 93.6086 25.7551 93.0658 25.2906C92.9189 25.165 92.5983 25.0366 92.2142 24.9498C91.5231 24.7934 91.29 24.6162 91.29 24.2476C91.29 23.701 91.9813 23.3899 92.6642 23.6292C93.052 23.765 93.1059 23.7436 93.1838 23.4226C93.2232 23.26 93.2003 23.1944 93.0888 23.1504C92.858 23.0593 91.9198 23.022 91.6526 23.0933ZM99.5891 23.1141C98.8756 23.3317 98.4779 23.9408 98.4044 24.9288C98.2765 26.6481 99.2271 27.546 100.889 27.275C101.476 27.1791 101.561 27.1227 101.484 26.8763C101.437 26.7276 101.389 26.7081 101.182 26.7543C101.046 26.7846 100.704 26.808 100.421 26.8063C99.6631 26.8019 99.1913 26.4645 99.0673 25.8385L99.0166 25.5822L99.7259 25.6226C100.604 25.6726 101.061 25.557 101.417 25.1943C101.657 24.9504 101.684 24.8758 101.684 24.4535C101.684 23.8758 101.476 23.4947 101.037 23.2669C100.66 23.0713 99.9689 22.9983 99.5891 23.1141ZM103.698 23.1857C103.293 23.3303 103.233 23.3331 102.992 23.2197C102.848 23.1515 102.694 23.1182 102.65 23.1458C102.601 23.1766 102.57 23.9666 102.57 25.1983V27.2007H102.851H103.131L103.153 25.5826L103.175 23.9645L103.534 23.7802C103.732 23.6787 104.031 23.5958 104.199 23.5958C104.494 23.5958 104.504 23.5863 104.504 23.3091C104.504 22.9634 104.376 22.9438 103.698 23.1857ZM105.924 23.1233C105.207 23.3163 104.745 24.1413 104.746 25.2288C104.747 26.1264 104.998 26.7213 105.529 27.0852C105.991 27.4017 106.372 27.3998 107.385 27.0758C107.554 27.0215 107.566 27.0416 107.566 27.3838C107.566 28.4319 106.87 28.8221 106.001 28.2616C105.632 28.0236 105.606 28.0184 105.46 28.1526C105.31 28.2906 105.311 28.2976 105.49 28.4953C106.166 29.2424 107.572 29.1411 107.964 28.3169C108.12 27.9888 108.13 27.8245 108.13 25.5274V23.0865L107.909 23.1428C107.788 23.1738 107.664 23.2393 107.634 23.2884C107.597 23.35 107.415 23.3226 107.047 23.2C106.464 23.0052 106.383 22.9997 105.924 23.1233ZM118.161 23.0765C118.073 23.0957 117.848 23.1674 117.662 23.2357C117.355 23.3489 117.306 23.3477 117.119 23.2231C116.686 22.9345 116.671 22.9998 116.671 25.1451C116.671 26.2253 116.698 27.126 116.731 27.1467C116.764 27.1674 116.9 27.1972 117.033 27.2129L117.275 27.2417L117.297 25.5779L117.319 23.914L117.659 23.7567C117.847 23.6702 118.136 23.5986 118.302 23.5976C118.594 23.5959 118.605 23.5855 118.605 23.3091C118.605 23.0121 118.561 22.9893 118.161 23.0765ZM120.064 23.1453C119.29 23.3909 118.886 24.0951 118.891 25.1934C118.894 25.9842 119.017 26.3828 119.385 26.7972C119.717 27.1709 120.087 27.3108 120.746 27.3123C121.634 27.3143 122.262 26.8467 122.481 26.0209C122.62 25.4975 122.535 24.3586 122.326 23.9488C121.93 23.171 121.012 22.8448 120.064 23.1453ZM128.757 23.1813C128.346 23.3318 128.294 23.3344 128.043 23.2161C127.881 23.1395 127.744 23.1182 127.7 23.1631C127.658 23.2057 127.636 24.3918 127.648 25.9361L127.669 28.6345L127.931 28.6601L128.193 28.6859V27.9071C128.193 27.4789 128.225 27.1081 128.265 27.0832C128.304 27.0583 128.477 27.0983 128.648 27.1721C129.049 27.3456 129.772 27.3475 130.097 27.1759C130.432 26.9993 130.724 26.6347 130.894 26.1837C131.001 25.898 131.025 25.6333 131 25.0025C130.971 24.2738 130.943 24.1487 130.728 23.7976C130.314 23.1187 129.566 22.8849 128.757 23.1813ZM123.441 24.7223C123.443 26.6181 123.513 26.8977 124.053 27.16C124.468 27.3615 125.23 27.3616 125.644 27.1605C125.892 27.04 125.986 27.0287 126.106 27.105C126.189 27.1576 126.348 27.2007 126.459 27.2007H126.662V25.2444C126.662 23.1391 126.646 23.0603 126.243 23.1184L126.058 23.1452L126.036 24.809L126.014 26.4729L125.673 26.6302C125.3 26.8026 124.776 26.8366 124.447 26.7096C124.078 26.5668 124.003 26.2165 124.003 24.6313C124.003 23.1076 124.002 23.1042 123.593 23.1042C123.446 23.1042 123.439 23.1812 123.441 24.7223ZM57.4381 23.7355C57.8056 24.0082 57.9693 24.4577 57.9693 25.1934C57.9693 26.2975 57.5823 26.8262 56.7743 26.8262C56.0494 26.8262 55.7229 26.497 55.5745 25.6165C55.4187 24.6914 55.7001 23.8902 56.2739 23.6259C56.5938 23.4785 57.1644 23.5322 57.4381 23.7355ZM73.2873 23.6338C73.8404 23.8688 73.9438 24.6513 73.4693 25.0116C73.2932 25.1453 73.1328 25.1731 72.5647 25.1689C72.185 25.166 71.8331 25.1379 71.7829 25.1064C71.6653 25.0324 71.7445 24.4169 71.9146 24.0824C72.0672 23.7822 72.4752 23.5146 72.7808 23.5142C72.9041 23.514 73.132 23.5679 73.2873 23.6338ZM100.637 23.6574C101.147 23.9169 101.228 24.6746 100.78 25.0143C100.608 25.1449 100.443 25.1731 99.8792 25.1689C99.4994 25.166 99.1518 25.1405 99.1069 25.1123C98.9078 24.9871 99.1001 24.166 99.4109 23.8145C99.6966 23.4912 100.186 23.4285 100.637 23.6574ZM121.419 23.7443C121.778 24.0147 121.924 24.4301 121.924 25.181C121.924 26.3112 121.539 26.8182 120.679 26.8212C119.988 26.8237 119.593 26.348 119.518 25.4243C119.444 24.5142 119.703 23.8777 120.249 23.6259C120.56 23.4827 121.151 23.5426 121.419 23.7443ZM45.6685 23.8165L45.8867 23.9822V25.1934V26.4047L45.6711 26.5684C45.3667 26.7994 44.7369 26.8466 44.3632 26.6662C43.9157 26.4503 43.7235 26.0092 43.7212 25.1928C43.719 24.4275 43.9269 23.9393 44.3483 23.7199C44.6842 23.5452 45.378 23.596 45.6685 23.8165ZM84.3106 23.7865L84.5218 23.9273V25.1934V26.4596L84.3106 26.6003C83.9838 26.818 83.2496 26.8367 82.9344 26.6353C82.5193 26.3703 82.3881 26.0338 82.3878 25.2344C82.3873 24.052 82.7703 23.5594 83.6458 23.6163C83.8952 23.6325 84.1944 23.7091 84.3106 23.7865ZM96.4935 23.7503C96.8783 23.9889 97.045 24.4254 97.0446 25.1934C97.0443 25.9046 96.9444 26.1884 96.5687 26.5453C96.3857 26.7192 96.2761 26.7501 95.8419 26.7501C95.4476 26.7501 95.2784 26.7106 95.103 26.5776L94.8756 26.405L94.8532 25.2369C94.8367 24.3809 94.8582 24.035 94.9336 23.9426C95.2201 23.5917 96.0689 23.4871 96.4935 23.7503ZM107.247 23.7613L107.566 23.9269V25.1998V26.4725L107.191 26.6411C106.441 26.9785 105.693 26.6963 105.463 25.989C105.331 25.5805 105.405 24.4062 105.581 24.1332C105.919 23.6084 106.641 23.4473 107.247 23.7613ZM129.851 23.7503C130.236 23.9889 130.403 24.4254 130.402 25.1934C130.402 25.9046 130.302 26.1884 129.926 26.5453C129.743 26.7192 129.634 26.7501 129.199 26.7501C128.805 26.7501 128.636 26.7106 128.461 26.5776L128.233 26.405L128.211 25.2369C128.194 24.3809 128.216 24.035 128.291 23.9426C128.578 23.5917 129.426 23.4871 129.851 23.7503Z" fill="black"/>
</svg>
