<svg width="113" height="32" viewBox="0 0 113 32" fill="none" xmlns="http://www.w3.org/2000/svg">
<g clip-path="url(#clip0_0_280)">
<path d="M41.4015 15.8724C41.4015 19.6712 41.4015 23.4701 41.4015 27.2618C41.4015 28.405 41.3026 29.5269 40.5822 30.4854C39.5794 31.8204 38.2092 32.1612 36.6696 31.8488C35.0806 31.5292 33.9647 30.1872 33.8587 28.2488C33.7316 25.934 33.7952 23.605 33.7881 21.2831C33.7811 18.4997 33.7881 18.4997 31.0902 18.4997C28.7808 18.4997 26.4643 18.5423 24.1549 18.4783C23.1802 18.4499 22.9119 18.7624 22.9331 19.721C22.9896 22.3837 22.9613 25.0464 22.9472 27.7091C22.9401 29.3494 22.3822 30.7269 20.8849 31.5292C18.7167 32.6866 16.1248 31.5292 15.5527 29.1363C15.3691 28.3766 15.3409 27.5671 15.3409 26.7789C15.3267 19.5221 15.3338 12.2724 15.3338 5.01563C15.3338 4.50438 15.3479 3.99314 15.4185 3.489C15.7222 1.0748 17.05 -0.1181 19.317 -0.0541948C21.4429 0.00971048 22.8554 1.47953 22.9472 3.82273C23.0107 5.57657 22.9613 7.33752 22.9613 9.09137C22.9613 11.8535 22.9613 11.8535 25.6521 11.8535C27.9616 11.8535 30.2781 11.8109 32.5875 11.8748C33.5339 11.9032 33.8446 11.6334 33.8164 10.6606C33.7457 8.45231 33.7387 6.23693 33.8164 4.02865C33.9011 1.49373 35.2712 0.00971048 37.4182 -0.0541948C39.8901 -0.125201 41.345 1.35172 41.4086 4.13515C41.4651 6.85468 41.4227 9.57421 41.4227 12.2937C41.4015 13.4937 41.4015 14.6795 41.4015 15.8724Z" fill="black"/>
<path d="M91.3041 10.1706C93.9949 8.09726 96.7281 7.69253 99.5955 8.27478C103.72 9.11265 106.368 12.1233 107.046 17.0724C107.647 21.4535 107.223 25.728 103.995 29.1576C100.951 32.4026 95.93 32.8996 92.2505 30.4002C91.5725 29.9387 91.1628 29.4274 90.5343 30.6061C89.8633 31.8629 88.4791 32.1399 87.116 31.87C85.8518 31.6215 84.9973 30.7978 84.7077 29.5268C84.5382 28.7671 84.4888 27.9576 84.4888 27.1765C84.4746 19.7493 84.4746 12.3221 84.4817 4.89489C84.4817 4.27004 84.4817 3.64519 84.5594 3.02744C84.8207 1.00377 86.1273 -0.111022 88.1048 -0.0400165C89.9269 0.0238888 91.2052 1.25939 91.2758 3.24046C91.3676 5.43454 91.3041 7.63572 91.3041 10.1706Z" fill="black"/>
<path d="M56.2102 22.2485C54.4234 22.2485 52.8979 22.284 51.3794 22.2343C50.426 22.2059 50.2 22.5041 50.4966 23.4343C51.3582 26.1112 54.1621 27.3325 56.7752 26.0899C57.9687 25.5219 58.8586 24.5633 59.8191 23.697C61.0833 22.5609 62.6936 22.3834 63.8094 23.2355C64.8688 24.045 65.1231 25.5574 64.3321 27.084C62.7854 30.0734 60.0592 31.3657 56.9376 31.7988C53.8301 32.2319 50.7438 32.0047 47.9682 30.2793C43.8932 27.7515 42.0922 22.6888 43.2081 16.9586C44.0203 12.7763 46.3015 9.73017 50.4189 8.59408C54.8047 7.37277 59.0493 7.74201 62.4464 11.3065C64.3321 13.2805 65.1725 15.7018 65.0807 18.4213C65.01 20.6225 64.0213 21.716 61.8461 22.0781C59.8897 22.4047 57.9122 22.1917 56.2102 22.2485Z" fill="black"/>
<path d="M73.2031 9.8011C75.6467 7.18808 79.2133 7.89104 81.2826 9.12654C82.9211 10.1064 83.5073 11.7254 82.8576 13.3159C82.2007 14.9135 80.6894 15.5242 78.7966 14.9632C75.562 13.9975 74.552 14.6721 74.0012 18.0662C73.5421 20.9419 73.7752 23.8248 73.7116 26.7076C73.6975 27.3893 73.7399 28.078 73.641 28.7384C73.3232 30.8046 71.9177 31.9904 69.9402 31.9265C68.0899 31.8697 66.7833 30.6129 66.6279 28.5396C66.5079 26.9632 66.5502 25.3727 66.5502 23.7893C66.5502 19.9407 66.5432 16.0922 66.5855 12.2366C66.5997 10.5183 66.9881 8.93482 68.8032 8.22476C70.3569 7.63541 71.7482 8.16086 73.2031 9.8011Z" fill="black"/>
<path d="M6.36301 19.9833C6.36301 17.3206 6.34889 14.6579 6.37007 11.9952C6.39126 9.53835 7.6837 8.08983 9.82364 8.06143C12.0271 8.03303 13.4467 9.53125 13.4608 12.0307C13.4891 17.2993 13.4961 22.5608 13.4608 27.8295C13.4467 30.478 12.0625 31.962 9.78126 31.9336C7.61307 31.9052 6.37714 30.4141 6.36301 27.794C6.35595 25.1952 6.36301 22.5892 6.36301 19.9833Z" fill="black"/>
<path d="M9.86721 0.236759C11.9577 0.208357 13.4197 1.58587 13.4691 3.61664C13.5185 5.76102 12.0707 7.25924 9.9449 7.27345C7.81909 7.29475 6.39953 5.95274 6.36421 3.89356C6.32184 1.72078 7.72728 0.265162 9.86721 0.236759Z" fill="black"/>
<path d="M91.5864 20.5726C91.6076 18.4141 91.8548 16.7525 92.9989 15.3679C94.9129 13.0531 98.1122 13.4294 99.3481 16.1632C100.316 18.3005 100.372 20.5584 99.6942 22.7951C99.0797 24.8401 97.6531 25.9123 95.7674 25.8697C93.8888 25.8271 92.5046 24.7052 91.9396 22.6531C91.7136 21.8508 91.6571 20.9916 91.5864 20.5726Z" fill="#FEFEFE"/>
<path d="M53.9433 17.3632C53.3289 17.3632 52.7074 17.3916 52.0929 17.3561C51.5491 17.3277 50.7581 17.633 50.518 17.1786C50.1931 16.575 50.7299 15.8934 51.0759 15.3324C51.9305 13.9478 53.2159 13.3727 54.812 13.6283C56.3446 13.8697 57.2768 14.8567 57.7783 16.2981C58.0537 17.0863 57.8771 17.4342 56.9731 17.3774C55.9632 17.3206 54.9533 17.3632 53.9433 17.3632Z" fill="white"/>
</g>
<defs>
<clipPath id="clip0_0_280">
<rect width="113" height="32" fill="white"/>
</clipPath>
</defs>
</svg>
