<svg width="179" height="44" viewBox="0 0 179 44" fill="none" xmlns="http://www.w3.org/2000/svg">
<g clip-path="url(#clip0_0_273)">
<path d="M21.8114 29.0931C20.9934 29.8307 19.8142 30.0778 19.0754 30.1709C17.5698 30.3589 16.0131 29.8612 15.0199 28.6679C14.2038 27.6939 13.7849 26.4325 12.9886 25.4236C11.7302 23.8265 9.71955 22.7809 7.64777 23.1507C3.55185 23.891 1.69399 28.6473 4.00935 31.9461C7.3188 36.6612 14.761 35.8448 18.5801 32.5782C19.7702 31.563 20.8811 30.4323 21.8114 29.0931ZM160.577 29.0922C161.395 29.8316 162.572 30.0769 163.313 30.1709C164.817 30.3589 166.376 29.8621 167.368 28.6688C168.184 27.693 168.605 26.4325 169.399 25.4236C170.66 23.8265 172.671 22.7809 174.742 23.1507C178.835 23.8901 180.694 28.6473 178.377 31.9461C175.069 36.6603 167.627 35.8448 163.81 32.5791C162.62 31.563 161.507 30.4323 160.577 29.0922Z" fill="black"/>
<path d="M157.822 3.94509C157.719 3.94151 147.944 3.94151 147.854 3.94509C146.783 3.97731 145.897 4.96563 145.846 5.9817C145.792 7.06133 146.734 8.13201 147.854 8.18572C147.958 8.1893 157.732 8.1893 157.822 8.18572C158.893 8.15349 159.78 7.16517 159.83 6.14911C159.884 5.06858 158.942 3.99969 157.822 3.94509ZM95.5698 25.1008C95.4398 24.5499 95.3568 23.9889 95.3218 23.4241C95.3155 22.6175 95.3155 21.4841 95.3155 20.4412C95.417 16.8389 96.0921 10.5034 91.1872 10.5034C87.875 10.5034 85.912 13.2786 85.3556 14.1872C85.2765 11.6565 83.2722 9.82038 80.2099 9.82038C78.2559 9.82038 77.0955 11.3691 77.0955 11.3691C77.0955 11.3691 79.001 12.0271 79.001 14.5776C79.0217 16.4038 78.9983 25.296 79.001 25.3336C79.0765 26.9091 80.182 28.3862 82.1594 28.3862C84.1368 28.3862 85.3637 26.8733 85.3637 25.3309V17.444C85.6388 16.1549 86.3677 14.839 87.4652 14.839C88.8898 14.839 88.9698 16.4172 88.9761 16.4172L88.9698 24.0507C88.9761 24.2996 89.0084 24.5377 89.0516 24.7714C89.1173 25.1568 89.2403 25.5303 89.4165 25.8796C90.176 27.4167 91.8568 28.4194 94.1155 28.4194C96.0678 28.4194 97.229 26.8715 97.229 26.8715C97.229 26.8715 96.0831 26.4696 95.5698 25.1008ZM142.719 25.1008C142.587 24.5502 142.504 23.9891 142.471 23.4241L142.477 4.52966C142.477 3.64715 142.125 2.80078 141.498 2.17675C140.871 1.55272 140.022 1.20215 139.136 1.20215C138.25 1.20215 137.4 1.55272 136.773 2.17675C136.147 2.80078 135.795 3.64715 135.795 4.52966L135.799 21.263C135.816 22.7706 135.667 24.3103 136.382 25.6952C137.138 27.2341 139.005 28.4194 141.261 28.4194C143.22 28.4194 144.378 26.8715 144.378 26.8715C144.378 26.8715 143.234 26.4696 142.719 25.1008ZM68.066 10.3387C63.0523 10.3387 58.9888 14.3851 58.9888 19.3795C58.9888 24.373 63.0514 28.4194 68.066 28.4194C73.0787 28.4194 77.144 24.373 77.144 19.3795C77.144 14.3851 73.0787 10.3378 68.066 10.3378V10.3387ZM68.1325 24.5798V24.5843C68.1253 24.5843 68.119 24.5816 68.1127 24.5816C68.1055 24.5816 68.0992 24.5843 68.0947 24.5843V24.5798C66.3798 24.5485 65.5205 22.587 65.5205 19.3786C65.5205 16.1764 66.609 14.2123 68.0938 14.1774H68.1325C69.6155 14.2132 70.7049 16.1764 70.7049 19.3786C70.7049 22.587 69.8474 24.5485 68.1325 24.5798Z" fill="black"/>
<path d="M115.987 25.1008C115.855 24.5503 115.771 23.9892 115.738 23.4241L115.743 4.52966C115.743 3.64715 115.391 2.80078 114.764 2.17675C114.138 1.55272 113.288 1.20215 112.402 1.20215C111.516 1.20215 110.666 1.55272 110.039 2.17675C109.413 2.80078 109.061 3.64715 109.061 4.52966L109.047 13.4791C108.245 12.3646 106.474 10.4819 103.686 10.4819C96.0127 10.4819 95.5282 24.0892 100.79 27.4552C102.273 28.4041 104.51 28.6467 106.203 28.209C107.371 27.9055 109.214 26.7623 109.51 25.3962C109.552 25.4965 109.597 25.5968 109.649 25.6952C110.405 27.2341 112.273 28.4194 114.529 28.4194C116.487 28.4194 117.645 26.8715 117.645 26.8715C117.645 26.8715 116.502 26.4696 115.987 25.1008ZM106.03 24.0015V24.0042L106.012 24.0033H105.991V24.0015C104.277 23.9764 103.42 22.2648 103.42 19.4717C103.42 16.6804 104.507 14.9706 105.991 14.9392V14.9365C106 14.9365 106.004 14.9392 106.012 14.9392C106.018 14.9392 106.024 14.9365 106.03 14.9365V14.9392C107.517 14.9706 108.604 16.6804 108.604 19.4708C108.604 22.2639 107.745 23.9764 106.03 24.0006V24.0015ZM133.369 22.8252C133.369 22.8252 132.389 24.1626 128.588 24.1626C124.787 24.1626 123.971 21.2192 123.971 21.2192C129.511 21.2192 134.157 20.8503 134.157 16.3832C134.157 11.9161 129.087 10.4435 126.083 10.4435C121.12 10.4435 117.494 14.3851 117.494 19.5881C117.494 25.4481 122.216 28.4194 126.135 28.4194C133.038 28.4194 133.369 22.8252 133.369 22.8252ZM123.612 18.3536C123.807 16.9275 124.149 15.1308 125.436 14.2982C126.506 13.6062 128.004 14.394 128.027 15.7261C128.052 17.1334 127.138 18.0913 125.867 18.358C125.732 18.3867 123.593 18.4923 123.612 18.3536ZM160.096 22.8252C160.096 22.8252 159.116 24.1626 155.315 24.1626C151.514 24.1626 150.699 21.2192 150.699 21.2192C156.237 21.2192 160.884 20.8503 160.884 16.3832C160.884 11.9161 155.815 10.4435 152.81 10.4435C147.847 10.4435 144.221 14.3851 144.221 19.5881C144.221 25.4481 148.942 28.4194 152.862 28.4194C159.765 28.4194 160.096 22.8252 160.096 22.8252ZM150.339 18.3536C150.533 16.9275 150.877 15.1308 152.164 14.2982C153.233 13.6062 154.732 14.394 154.754 15.7261C154.778 17.1334 153.864 18.0913 152.593 18.358C152.459 18.3867 150.32 18.4923 150.339 18.3536ZM172.631 23.3086H168.824C169.104 23.3086 171.92 20.9443 172.854 20.1556C175.298 18.0886 179.696 15.1066 178.415 11.2438L178.418 11.2706C178.183 10.3512 177.472 9.82038 177.472 9.82038C177.472 9.82038 177.206 10.5706 176.302 10.9072C175.933 10.9967 175.563 11.0629 175.194 11.0853C174.89 11.0907 164.555 11.0853 164.555 11.0853C163.157 11.0835 161.985 12.2034 161.966 13.5239C161.95 14.856 163.056 15.924 164.472 15.9436L170.501 15.9812C167.706 17.5344 164.369 19.3723 162.675 22.1797C161.707 23.7911 160.67 26.2753 161.064 28.1812C162.403 26.9987 165.919 25.8537 168.596 26.4096C169.597 26.6182 170.663 27.1276 171.529 27.6674C176.548 30.7944 179.564 24.6783 177.164 21.9828C177.164 21.9828 175.796 23.3086 172.631 23.3086ZM59.4792 27.1124C56.4008 23.7508 55.4381 18.1602 55.2485 14.4433C55.0849 11.233 55.2593 5.67285 57.7993 4.0543C56.9491 2.989 55.2719 2.56108 53.9973 2.56108C51.1328 2.56108 49.7522 4.46073 48.7734 5.82683C48.4498 6.27802 43.6339 12.8954 43.6339 12.8954C43.6339 12.8954 39.583 6.65401 39.0859 5.90382C38.3974 4.86895 37.1085 2.96751 34.8444 2.63897C33.8692 2.49752 31.3399 2.36861 29.9638 4.25036C32.3367 6.14105 32.2774 10.9573 31.7614 14.2454C30.2155 24.1143 26 25.0238 26 25.0238C28.1599 30.8329 33.7209 28.5375 35.2938 23.9048C36.3113 20.8951 36.9683 17.0833 37.1202 13.9232L43.2232 23.2495C43.2232 23.2495 50.1351 13.9527 50.1351 13.9607C48.9972 30.4023 54.6661 35.0628 59.624 35.0628C64.5854 35.0628 66.2734 30.5437 66.2734 30.5437C63.5913 30.3826 61.2427 29.0389 59.4792 27.1124ZM74.9623 32.4604C75.0216 32.7021 75.0522 32.9393 75.0684 33.1774C75.0684 33.2508 75.0639 41.7796 75.0684 41.8816C75.0899 42.5978 75.7551 43.1886 76.44 43.2226C77.168 43.2593 77.8871 42.6291 77.9239 41.8816C77.9275 41.7831 77.9239 34.1022 77.9239 34.1022C77.9176 33.4576 77.9805 32.7988 77.6749 32.2061C77.3514 31.5472 76.5514 31.0397 75.587 31.0397C74.7484 31.0397 74.2522 31.7021 74.2522 31.7021C74.2522 31.7021 74.7412 31.874 74.9623 32.4604ZM165.491 41.8037C165.431 41.562 165.4 41.3257 165.384 41.0858C165.384 41.0141 165.388 32.4845 165.385 32.3843C165.363 31.6663 164.697 31.0755 164.013 31.0414C163.285 31.0056 162.565 31.635 162.528 32.3843C162.525 32.481 162.528 40.161 162.528 40.161C162.535 40.8056 162.472 41.4653 162.777 42.0589C163.102 42.7168 163.901 43.2244 164.866 43.2244C165.704 43.2244 166.2 42.562 166.2 42.562C166.2 42.562 165.711 42.3892 165.49 41.8037H165.491ZM113.821 35.4558C112.335 35.4558 111.457 36.6992 111.208 37.1056L111.199 37.1119C111.199 36.7001 111.197 36.3751 111.197 36.359C111.176 35.6429 110.511 35.1075 109.827 35.0744C109.099 35.0377 108.38 35.6115 108.343 36.359C108.34 36.4566 108.34 41.8037 108.343 41.8762C108.365 42.5915 109.029 43.1832 109.714 43.2164C110.441 43.2522 111.161 42.6228 111.197 41.8762C111.199 41.8207 111.2 40.076 111.199 38.5729L111.211 38.5639C111.334 37.9874 111.66 37.3975 112.153 37.3975C112.791 37.3975 112.827 38.1047 112.83 38.1047L112.823 41.8762C112.845 42.5915 113.51 43.1832 114.195 43.2164C114.921 43.2522 115.642 42.6228 115.678 41.8762L115.674 39.905C115.674 37.8782 115.886 35.4459 113.82 35.4558H113.821ZM150.318 35.4558C148.834 35.4558 147.955 36.6992 147.706 37.1056L147.697 37.1119V36.359C147.673 35.6429 147.009 35.1075 146.325 35.0744C145.598 35.0377 144.877 35.6115 144.841 36.359C144.838 36.4566 144.838 41.8037 144.841 41.8762C144.863 42.5915 145.528 43.1832 146.212 43.2164C146.939 43.2522 147.659 42.6228 147.696 41.8762C147.698 41.8207 147.698 40.076 147.698 38.5729L147.709 38.5639C147.831 37.9874 148.159 37.3975 148.651 37.3975C149.289 37.3975 149.324 38.1047 149.327 38.1047L149.321 41.8762C149.343 42.5915 150.008 43.1832 150.692 43.2164C151.42 43.2522 152.139 42.6228 152.175 41.8762L152.172 39.905C152.172 37.8782 152.385 35.4459 150.318 35.4558ZM84.8305 35.4558C83.3456 35.4558 82.4666 36.6992 82.2176 37.1056L82.2095 37.1119C82.2095 36.7001 82.2077 36.3751 82.2077 36.359C82.1861 35.6429 81.521 35.1075 80.8361 35.0744C80.1099 35.0377 79.389 35.6115 79.3531 36.359C79.3504 36.4566 79.3504 41.8037 79.3531 41.8762C79.3746 42.5915 80.0406 43.1832 80.7246 43.2164C81.4509 43.2522 82.1717 42.6228 82.2077 41.8762C82.2095 41.8207 82.2104 40.076 82.2095 38.5729L82.2212 38.5639C82.3443 37.9874 82.6706 37.3975 83.1631 37.3975C83.8013 37.3975 83.8373 38.1047 83.84 38.1047L83.8337 41.8762C83.8552 42.5915 84.5204 43.1832 85.2044 43.2164C85.9324 43.2522 86.6515 42.6228 86.6883 41.8762L86.6838 39.905C86.6838 37.8782 86.8968 35.4459 84.8305 35.4558ZM139.969 35.0986C139.435 35.0984 138.906 35.2031 138.412 35.4065C137.919 35.6099 137.471 35.9081 137.093 36.2841C136.715 36.6601 136.416 37.1065 136.211 37.5978C136.007 38.0892 135.902 38.6158 135.901 39.1476C135.901 39.6795 136.006 40.2061 136.211 40.6975C136.415 41.1889 136.714 41.6355 137.092 42.0116C137.469 42.3878 137.917 42.6862 138.411 42.8898C138.904 43.0935 139.433 43.1983 139.967 43.1985C141.045 43.1987 142.08 42.7722 142.842 42.0129C143.605 41.2535 144.034 40.2235 144.034 39.1494C144.034 38.0753 143.606 37.0451 142.844 36.2854C142.081 35.5257 141.047 35.0988 139.969 35.0986ZM139.997 41.4779V41.4797H139.981V41.4779C139.212 41.4635 138.828 40.5862 138.828 39.1485C138.828 37.7135 139.315 36.8344 139.981 36.8183H139.997C140.662 36.8335 141.15 37.7135 141.15 39.1485C141.15 40.5862 140.766 41.4635 139.997 41.4779ZM124.781 36.2614C124.758 35.5113 124.05 34.8918 123.334 34.856C122.571 34.8184 121.817 35.4781 121.779 36.2614C121.777 36.3152 121.771 36.4315 121.771 36.453C121.41 35.9535 120.618 35.1102 119.368 35.1102C115.931 35.1102 115.713 41.2066 118.07 42.715C118.735 43.1394 119.738 43.2486 120.497 43.0525C120.925 42.9415 121.556 42.5772 121.844 42.1126C122.019 42.7106 122.615 43.1671 123.227 43.1976C123.988 43.2352 124.743 42.5763 124.781 41.7921C124.785 41.6909 124.784 36.3295 124.781 36.2614ZM120.418 41.1672V41.169H120.401V41.1681C119.633 41.1556 119.249 40.3884 119.249 39.1369C119.249 37.8872 119.736 37.1217 120.401 37.1065H120.419C121.084 37.1217 121.572 37.8872 121.572 39.1369C121.572 40.3884 121.186 41.1556 120.418 41.1681V41.1672ZM161.249 36.2614C161.227 35.5113 160.519 34.8918 159.802 34.856C159.04 34.8184 158.286 35.4781 158.247 36.2614C158.247 36.3152 158.239 36.4315 158.239 36.453C157.879 35.9535 157.086 35.1102 155.836 35.1102C152.399 35.1102 152.181 41.2066 154.538 42.715C155.204 43.1394 156.207 43.2486 156.964 43.0525C157.393 42.9415 158.025 42.5772 158.313 42.1126C158.488 42.7106 159.084 43.1671 159.695 43.1976C160.457 43.2352 161.211 42.5763 161.25 41.7921C161.253 41.6909 161.251 36.3295 161.25 36.2614H161.249ZM156.888 41.1672V41.169H156.87V41.1681C156.102 41.1556 155.718 40.3884 155.718 39.1369C155.718 37.8872 156.205 37.1217 156.87 37.1065H156.888C157.553 37.1217 158.041 37.8872 158.041 39.1369C158.041 40.3884 157.655 41.1556 156.888 41.1681V41.1672ZM135.005 37.0242C134.988 36.685 134.847 36.3638 134.608 36.1208C134.37 35.8779 134.051 35.7299 133.711 35.7046C133.669 35.7001 133.63 35.6912 133.59 35.6912C132.954 35.6912 132.154 36.2391 132.154 36.9311L132.158 39.554H132.154C132.163 40.3723 132.153 41.8494 132.154 41.8664C132.188 42.5736 132.746 43.1268 133.447 43.1859C133.49 43.1913 133.528 43.1985 133.569 43.1985C134.204 43.1985 135.005 42.6515 135.005 41.9595L135.002 39.768H135.005C134.995 38.9489 135.006 37.0403 135.005 37.0242ZM134.994 33.4773C134.994 33.6624 134.958 33.8456 134.887 34.0165C134.815 34.1875 134.711 34.3428 134.58 34.4736C134.448 34.6044 134.292 34.7081 134.121 34.7789C133.949 34.8496 133.765 34.886 133.579 34.8859C133.394 34.8859 133.21 34.8494 133.038 34.7785C132.866 34.7077 132.71 34.6038 132.579 34.4729C132.448 34.342 132.344 34.1867 132.273 34.0157C132.201 33.8447 132.165 33.6615 132.165 33.4764C132.165 33.1027 132.314 32.7444 132.58 32.4802C132.845 32.216 133.205 32.0677 133.58 32.0678C133.955 32.0679 134.315 32.2165 134.58 32.4808C134.846 32.7452 134.995 33.1036 134.994 33.4773ZM106.07 35.3573C105.222 35.3931 104.802 36.0215 104.225 36.8111C104.222 36.8174 104.225 36.4468 104.225 36.4324C104.204 35.7163 103.538 35.1254 102.855 35.0914C102.127 35.0556 101.407 35.684 101.371 36.4324V41.8932H101.369C101.39 42.6094 102.055 43.2003 102.739 43.2343C103.46 43.2701 104.173 42.6515 104.222 41.9138H104.228L104.227 38.4547C104.27 37.9471 104.492 37.3142 104.901 37.3178C105.481 37.3223 104.883 38.7179 106.212 38.7179C108.117 38.7179 108.321 35.2651 106.07 35.3573ZM100.247 40.6892C100.247 40.6892 99.8066 41.289 98.1024 41.289C96.3974 41.289 96.0307 39.9685 96.0307 39.9685C98.5159 39.9685 100.6 39.802 100.6 37.7985C100.6 35.795 98.3262 35.1344 96.978 35.1344C94.7525 35.1344 93.1257 36.9024 93.1257 39.2362C93.1257 41.8655 95.2433 43.1976 97.0023 43.1976C100.099 43.1976 100.247 40.6892 100.247 40.6892ZM95.8698 38.6821C95.956 38.0429 96.1106 37.2363 96.6895 36.863C97.1686 36.5533 97.84 36.906 97.8508 37.5031C97.8615 38.1351 97.4517 38.5648 96.8818 38.6848C96.8207 38.6973 95.8608 38.7457 95.8698 38.6821ZM92.9531 41.7017C92.9531 41.7017 92.2107 43.1985 90.8382 43.1985C89.7084 43.1985 88.3188 42.2048 88.2603 40.7671L88.2469 36.9543H87.864C87.6635 36.9543 87.3085 36.8353 87.3085 36.3161C87.3085 35.7968 87.7076 35.6858 87.9053 35.6858H88.2442C88.2424 35.0816 88.2415 34.6653 88.2424 34.6393C88.2783 33.8936 88.9974 33.2661 89.7227 33.3019C90.4058 33.3368 91.0862 33.9249 91.1078 34.6393V35.6849H92.3167C92.4839 35.6849 92.8713 35.7941 92.8713 36.3241C92.8713 36.8532 92.4848 36.9543 92.2745 36.9543H91.1087V40.1315C91.1087 41.1618 91.9994 41.6972 92.9576 41.6999L92.9531 41.7017ZM131.153 41.7017C131.153 41.7017 130.411 43.1985 129.038 43.1985C127.908 43.1985 126.519 42.2048 126.461 40.7671C126.459 40.7536 126.452 38.6839 126.447 36.9543H126.064C125.863 36.9543 125.509 36.8353 125.509 36.3161C125.509 35.7968 125.907 35.6858 126.105 35.6858H126.444C126.442 35.0816 126.441 34.6653 126.443 34.6393C126.479 33.8936 127.198 33.2661 127.923 33.3019C128.606 33.3368 129.286 33.9249 129.308 34.6393V35.6849H130.517C130.684 35.6849 131.071 35.7941 131.071 36.3241C131.071 36.8532 130.684 36.9543 130.474 36.9543H129.308V40.1315C129.308 41.1618 130.199 41.6972 131.157 41.6999" fill="black"/>
</g>
<defs>
<clipPath id="clip0_0_273">
<rect width="179" height="44" fill="white"/>
</clipPath>
</defs>
</svg>
