<svg width="157" height="36" viewBox="0 0 157 36" fill="none" xmlns="http://www.w3.org/2000/svg">
<path fill-rule="evenodd" clip-rule="evenodd" d="M103.967 17.7012V35.4023L108.495 35.3313L113.024 35.26V17.7012V0.142292L108.495 0.0710158L103.967 0V17.7012ZM116.689 0.33739C116.62 0.516361 116.595 8.44698 116.632 17.9613L116.7 35.26L121.229 35.3313L125.758 35.4023V17.7074V0.0122262H121.286C117.951 0.0122262 116.783 0.094948 116.689 0.33739ZM63.4695 2.00925L59.3344 3.4561V6.28659V9.11682H57.4967H55.6589V12.6286V16.1404H57.4817H59.3045L59.3851 23.4891C59.462 30.5033 59.4922 30.887 60.0488 31.9181C60.3696 32.5125 61.0785 33.3652 61.6241 33.8132C63.2167 35.1206 64.7092 35.4145 69.3368 35.3321L73.3804 35.26L73.4539 31.9433L73.5275 28.6267H71.5797C70.0538 28.6267 69.4974 28.519 69.012 28.1298C68.3992 27.6387 68.3914 27.5672 68.3123 21.8963L68.2325 16.1596L70.8065 16.085L73.3804 16.0103L73.4537 12.5636L73.5269 9.11682H70.8939H68.2609V4.82466C68.2609 1.55637 68.1826 0.536131 67.9327 0.547576C67.7523 0.555901 65.7436 1.21351 63.4695 2.00925ZM86.245 8.35594C79.0322 9.40687 73.601 15.9284 74.1295 22.9038C74.7 30.4328 80.729 35.9358 88.4766 35.9993C92.6547 36.0336 95.7461 34.7806 98.4965 31.9381C99.6577 30.7384 101.604 27.3845 101.604 26.5833C101.604 26.3711 100.296 26.2855 97.0549 26.2855H92.5063L91.8697 26.9611C90.877 28.0151 89.438 28.6267 87.9515 28.6267C85.6485 28.6267 84.1341 27.4764 83.4849 25.2335L83.2625 24.4646H92.5363C100.75 24.4646 101.828 24.4175 101.969 24.053C102.296 23.2102 102.112 20.3209 101.608 18.3663C99.8271 11.4687 93.441 7.30735 86.245 8.35594ZM138.753 8.518C131.813 9.42976 126.932 15.0166 126.979 21.9933C127.006 26.0035 128.232 28.9898 130.981 31.7464C134.408 35.1833 139.401 36.6098 144.134 35.5045C145.072 35.2855 146.23 34.8776 146.709 34.598C147.805 33.9573 147.811 33.9581 147.811 34.7398V35.3901H152.406H157V22.2535V9.11682H152.406H147.811V9.78874C147.811 10.1584 147.723 10.4162 147.614 10.3616C144.133 8.60801 141.785 8.11948 138.753 8.518ZM12.5629 8.94436C12.0362 9.13867 10.9433 9.66752 10.1344 10.1199L8.66388 10.9422V10.0296V9.11682H4.33194H0V22.2535V35.3901H4.32196H8.64393L8.71954 26.5644C8.79253 18.0591 8.8151 17.7118 9.3478 17.0045C10.9953 14.8155 14.2051 14.7331 15.648 16.8425C16.1062 17.5126 16.1568 18.2831 16.2776 26.4156L16.4089 35.26H20.8721H25.3353L25.3271 25.375C25.3195 15.7712 25.3025 15.4487 24.7343 14.0388C23.9378 12.0618 22.6726 10.6797 20.6951 9.62642C19.1514 8.80441 18.84 8.73677 16.2776 8.6668C14.4288 8.61607 13.2053 8.70764 12.5629 8.94436ZM28.9313 19.327L29.0109 29.5371L29.6987 30.9902C30.4546 32.5874 31.8353 34.1017 33.1501 34.7757C36.4124 36.448 41.0944 36.202 43.8915 34.2109C44.5883 33.7148 45.2173 33.309 45.289 33.309C45.3609 33.309 45.4197 33.7773 45.4197 34.3496V35.3901H49.7517H54.0836V22.2535V9.11682H49.7651H45.4468L45.3675 17.5061C45.2929 25.4148 45.2577 25.9473 44.7508 26.8021C44.0608 27.9659 42.2314 28.7752 40.8652 28.5211C39.5942 28.2849 38.4049 27.2407 38.0778 26.0737C37.9213 25.516 37.8084 21.7694 37.8076 17.1159L37.806 9.11682H33.3289H28.8515L28.9313 19.327ZM90.5037 15.7949C91.3225 16.1799 92.6773 17.9902 92.6773 18.6995C92.6773 18.9175 91.3982 19.0018 88.0828 19.0018C85.5558 19.0018 83.4883 18.9396 83.4883 18.8634C83.4883 18.7872 83.6503 18.3484 83.8482 17.8879C84.8842 15.4791 87.8491 14.5468 90.5037 15.7949ZM144.9 16.6492C146.924 17.672 148.126 19.7299 148.126 22.1715C148.126 27.6847 141.629 30.1958 138.059 26.0626C135.989 23.6662 136.018 20.4937 138.132 18.114C138.678 17.4996 139.513 16.8068 139.989 16.5745C141.21 15.9783 143.647 16.0152 144.9 16.6492Z" fill="black"/>
</svg>
