<svg width="168" height="26" viewBox="0 0 168 26" fill="none" xmlns="http://www.w3.org/2000/svg">
<path fill-rule="evenodd" clip-rule="evenodd" d="M7.74214 12.1296C3.82661 18.887 0.4828 24.6368 0.311547 24.9074L0 25.3991H6.98424H13.9685L12.988 24.7802C10.3109 23.0903 8.99953 19.7808 9.79014 16.7091C10.2211 15.035 10.9024 13.9381 12.238 12.7679C13.7867 11.411 15.3227 10.9132 17.6148 11.0251C19.6101 11.1226 20.6383 11.503 22.0097 12.6516C22.6055 13.1508 22.6883 13.1765 22.4863 12.8009C21.8738 11.6617 15.1468 0.141094 15.0125 0.00101507C14.9293 -0.0855237 11.6577 5.37232 7.74214 12.1296ZM41.1071 5.29409V7.26088H44.4005H47.6938V16.33V25.3991H49.9991H52.3044V16.33V7.26088H55.7075H59.1106V5.29409V3.3273H50.1089H41.1071V5.29409ZM117.732 14.4178L117.732 25.3991H119.922H122.112L122.172 21.6294L122.232 17.8597L125.526 17.7222C128.941 17.5795 129.557 17.4644 131.021 16.6943C132.799 15.7592 133.587 14.7386 134.114 12.6927C135.01 9.2115 133.653 5.92674 130.698 4.42651C129.098 3.61401 127.886 3.46563 122.727 3.45099L117.732 3.43656L117.732 14.4178ZM151.982 14.4724V25.3991H154.178H156.373V22.821V20.243L157.206 19.4338C157.664 18.9886 158.102 18.6246 158.179 18.6246C158.256 18.6246 159.276 20.1488 160.445 22.0118L162.571 25.3991H165.192H167.812L164.517 20.5629L161.221 15.727L164.074 12.7504L166.927 9.774L164.474 9.71194L162.021 9.64987L160.121 11.6787C159.077 12.7946 157.808 14.1501 157.303 14.691L156.384 15.6744L156.379 9.6101L156.373 3.54583H154.178H151.982V14.4724ZM74.699 7.15161V9.66474H73.6012H72.5034V11.0852V12.5057H73.5869H74.6702L74.7396 17.6958C74.8026 22.4205 74.848 22.9526 75.2478 23.6279C76.0922 25.0549 76.6389 25.2815 79.4347 25.3632L81.9443 25.4367V23.8881V22.3396H80.9464C80.1771 22.3396 79.8236 22.2155 79.4047 21.7985L78.8613 21.2574L78.9208 16.9362L78.9803 12.6149L80.4623 12.5502L81.9443 12.4858V11.0751V9.66474H80.4074H78.8705V7.15161V4.63849H76.7847H74.699V7.15161ZM128.261 7.59917C129.895 8.55131 130.444 10.416 129.602 12.1484C128.87 13.6525 127.896 14.0354 124.798 14.0354H122.342V10.512V6.98837L124.936 7.08059C126.995 7.15358 127.68 7.26044 128.261 7.59917ZM99.7571 9.23292C97.4198 9.71871 96.0243 10.8876 95.4284 12.8584C94.93 14.5068 94.8973 14.4724 96.9664 14.4724H98.815L98.9591 13.8195C99.235 12.5686 101.048 11.8155 102.935 12.1678C104.476 12.4554 105.343 14.1191 104.394 14.9659C104.18 15.1565 102.883 15.5087 101.473 15.7587C97.746 16.4202 96.7152 16.8042 95.5401 17.969C92.4216 21.0597 94.7509 25.4686 99.6724 25.7896C101.819 25.9299 103.092 25.5525 104.158 24.4596C104.976 23.6202 104.997 23.6123 104.997 24.153C104.997 25.3396 105.108 25.3991 107.321 25.3991H109.378L109.163 24.8385C109.045 24.528 108.949 21.8173 108.949 18.7625C108.949 13.2484 108.949 13.2467 108.374 12.0968C107.433 10.2192 105.713 9.36404 102.439 9.14747C101.491 9.08475 100.284 9.12321 99.7571 9.23292ZM139.628 9.22439C137.245 9.64922 135.776 10.8461 135.168 12.8584C134.669 14.5068 134.637 14.4724 136.706 14.4724H138.554L138.698 13.8195C138.889 12.9541 139.712 12.3428 140.932 12.1608C142.798 11.8824 144.517 12.7651 144.517 14.0015C144.517 15.0026 143.921 15.3223 141.2 15.7795C137.92 16.3304 136.586 16.7795 135.511 17.696C133.354 19.5337 133.273 22.0949 135.307 24.12C136.529 25.3357 137.934 25.8372 140.111 25.8339C141.745 25.8315 143.648 25.1054 144.068 24.3245C144.375 23.7542 144.737 23.7347 144.737 24.2885C144.737 25.3239 144.894 25.3991 147.06 25.3991H149.117L148.903 24.8385C148.785 24.5295 148.687 21.8081 148.684 18.7743C148.68 13.9005 148.633 13.1691 148.275 12.3842C147.735 11.2028 146.302 10.0179 144.894 9.59131C143.448 9.15293 140.99 8.9816 139.628 9.22439ZM61.1735 9.53755C59.1012 10.1831 57.3445 11.9292 56.4391 14.2434C55.7516 16 55.7685 19.1051 56.4755 20.9192C57.1847 22.7391 59.1672 24.7063 60.9768 25.3853C64.2471 26.6126 67.7698 25.9681 70.0183 23.7314C70.8247 22.9292 71.9989 21.0874 71.8052 20.9283C71.7666 20.8966 70.7876 20.8116 69.6294 20.7393L67.5241 20.6077L67.046 21.2515C66.2881 22.2719 65.3995 22.618 63.799 22.5166C62.8481 22.4563 62.2171 22.2872 61.8026 21.981C61.0293 21.4104 60.2167 20.0024 60.2119 19.2255L60.2084 18.6246H66.1666H72.1247L71.9861 17.4497C71.3622 12.1656 68.3393 9.19795 63.6264 9.24231C62.773 9.2504 61.6691 9.38327 61.1735 9.53755ZM91.2757 9.5664C90.4015 10.0275 89.8686 10.5135 89.3902 11.2865L88.995 11.9246L88.8444 10.7948L88.6938 9.66474H86.7718C85.0909 9.66474 84.8364 9.71522 84.7442 10.0664C84.686 10.2871 84.6263 13.8273 84.6114 17.9336L84.5842 25.3991H86.7771H88.97V21.1775C88.97 16.2358 89.1942 15.116 90.3934 14.0679C91.1776 13.3826 92.3549 12.946 93.4247 12.944L94.0375 12.9427L93.9736 11.1398L93.91 9.33694L92.922 9.27815C92.3351 9.24341 91.6668 9.36032 91.2757 9.5664ZM25.6595 13.5789L24.4335 15.0894L25.7019 16.5966L26.97 18.1038L27.3885 17.5448C27.6188 17.2371 28.6753 15.9309 29.7367 14.6418C30.798 13.3527 31.6663 12.2463 31.6663 12.1833C31.6663 12.1202 30.5907 12.0686 29.276 12.0686H26.8855L25.6595 13.5789ZM65.3459 12.8103C66.1717 13.1536 67.1246 14.2815 67.3507 15.1827L67.5013 15.7836H64.0012C62.0761 15.7836 60.4391 15.722 60.3634 15.6466C60.184 15.4681 60.7775 14.061 61.2596 13.5218C62.1227 12.5566 63.9649 12.236 65.3459 12.8103ZM15.1574 16.1855C14.3527 16.9327 14.244 17.1538 14.1656 18.2069C14.0971 19.1267 14.1773 19.5476 14.5268 20.1016C15.4237 21.5232 17.2851 22.0909 18.6856 21.3702C19.1866 21.1123 20.1366 20.0948 21.1578 18.7225C21.3896 18.4111 19.543 16.1018 18.7256 15.6809C18.3681 15.4971 17.6225 15.3466 17.0684 15.3466C16.2033 15.3466 15.9333 15.4652 15.1574 16.1855ZM104.945 19.0815C104.768 21.552 103.722 22.6014 101.301 22.7376C99.9453 22.8138 99.7534 22.7697 99.113 22.2332C98.5487 21.7605 98.4108 21.4812 98.4108 20.8099C98.4108 19.7673 99.1951 19.038 100.746 18.6394C101.333 18.4884 102.407 18.1877 103.131 17.9714C105.157 17.3665 105.072 17.3145 104.945 19.0815ZM144.517 19.1541C144.517 20.5981 144.452 20.8534 143.924 21.4784C143.154 22.389 142.187 22.7767 140.686 22.7767C139.665 22.7767 139.365 22.679 138.776 22.1552C138.257 21.6936 138.077 21.3477 138.077 20.8099C138.077 19.7041 139.01 19.0109 141.254 18.4508C142.277 18.1954 143.356 17.8903 143.651 17.7729C143.946 17.6556 144.262 17.5533 144.353 17.5457C144.443 17.5382 144.517 18.2618 144.517 19.1541ZM23.2302 23.1377C22.7564 23.689 21.9758 24.4235 21.4957 24.7697L20.6227 25.3991L24.7723 25.3969L28.9219 25.3947L27.8241 24.8853C27.2203 24.6051 26.1691 23.8687 25.4881 23.2485C24.807 22.6285 24.2142 22.1244 24.1707 22.1283C24.1273 22.1322 23.704 22.5866 23.2302 23.1377Z" fill="black"/>
</svg>
