<svg width="283" height="63" viewBox="0 0 283 63" fill="none" xmlns="http://www.w3.org/2000/svg">
<path d="M49.7078 41.8193L56.1741 56.6712L51.4716 61.5304L45.7109 48.2852L49.7078 41.8193Z" fill="#5CCAF5"/>
<path d="M9.85889 57.0266L1.43359 61.2933V61.9954H14.2877L20.2287 48.3851L16.3941 41.418L9.85889 57.0266Z" fill="#FFA300"/>
<path d="M56.4736 57.0977C55.0032 58.4849 52.0375 61.2926 51.9375 61.4258L63.1741 62.05L64.5891 61.4258L56.4736 57.0977Z" fill="#EF269D"/>
<path d="M49.8364 42.0381H16.8281L20.2681 48.0838C28.6301 48.0722 45.4029 48.056 45.5974 48.0838C45.792 48.1116 48.5045 44.0649 49.8364 42.0381Z" fill="#EF269D"/>
<path d="M32.9088 16.7113L24.7886 35.6972L16.9078 41.1302H16.1914L29.7442 9.36768L32.9088 16.7113Z" fill="#F89C30"/>
<path d="M35.7903 9.05078C34.7934 11.676 32.7798 16.9863 32.7 17.2256L40.6758 36.0979H24.8061L16.6992 41.8L48.1639 42.2122L49.9501 41.8L35.7903 9.05078Z" fill="#5CCAF5"/>
<path d="M35.7599 8.92627C34.9305 11.3601 33.2307 16.2441 33.0675 16.3093H32.4555L30.0898 8.92627H35.7599Z" fill="#EF269D"/>
<path d="M29.909 9.18668L27.1536 0.811035L1.03516 61.6445L9.83629 56.9859L29.909 9.18668Z" fill="#59CAF5"/>
<path d="M36.1183 9.18668L38.8737 0.811035L64.9922 61.6445L56.1911 56.9859L36.1183 9.18668Z" fill="#333399"/>
<path d="M38.2866 0.523438H27.5117L27.1797 0.855543L29.8364 9.08412H35.7773L38.2866 0.523438Z" fill="#59CAF5"/>
<path fill-rule="evenodd" clip-rule="evenodd" d="M26.9309 0H38.5864L66.0378 62.5281L50.9189 61.9881L45.4237 48.5H20.5896L14.5896 62.5H0L26.9309 0ZM20.5275 47.5H45.4923L49.3439 41.7226L50.1759 42.2774L46.3229 48.0568L51.6009 61.0119L64.482 61.4719L37.9333 1H27.5889L1.51978 61.5H13.9302L19.6936 48.052L15.8439 42.2774L16.6759 41.7226L20.5275 47.5Z" fill="white"/>
<path fill-rule="evenodd" clip-rule="evenodd" d="M30.1289 8.49972L27.7385 0.850586L26.784 1.14886L29.2298 8.97528L9.36876 56.6418L1.02734 61.0578L1.49523 61.9416L9.66886 57.6144L13.9077 61.8533L14.6148 61.1462L10.3516 56.8829L16.3446 42.4997H49.5249L55.6687 56.8852L51.4077 61.1462L52.1148 61.8533L56.3537 57.6144L64.5273 61.9416L64.9952 61.0578L56.6516 56.6406L36.2935 8.97289L38.7385 1.14886L37.784 0.850586L35.3937 8.49972H30.1289ZM35.0398 9.49972H30.4828L32.7613 15.5757L35.0398 9.49972ZM35.7914 10.3433L33.2993 16.989L41.1632 35.6659L48.7418 40.6662L35.7914 10.3433ZM48.1893 41.4997L40.6112 36.4997H24.9163L17.6246 41.4997H48.1893ZM17.1233 40.631L24.3574 35.6704L32.2233 16.989L29.7368 10.3585L17.1233 40.631ZM32.7613 18.2882L25.5143 35.4997H40.0082L32.7613 18.2882Z" fill="white"/>
<path d="M90.2709 8.25195H96.3647L104.765 32.6961H98.9813L97.0877 27.222H89.479L87.6199 32.6961H81.8359L90.2709 8.25195ZM96.1582 23.3316L93.3006 13.9326L90.3742 23.3316H96.1582Z" fill="white"/>
<path d="M128.174 32.6961V18.1329L122.906 28.7369H119.808L114.54 18.1329V32.6961H108.894V8.25195H115.022L121.357 21.0249L127.726 8.25195H133.82V32.6961H128.174Z" fill="white"/>
<path d="M157.416 27.7384V32.6961H140.236V8.25195H157.106V13.2096H145.882V17.9608H155.522V22.5398H145.882V27.7384H157.416Z" fill="white"/>
<path d="M162.567 32.6961V8.25195H173.584C174.732 8.25195 175.788 8.49295 176.752 8.97495C177.739 9.434 178.588 10.0652 179.3 10.8685C180.011 11.6489 180.562 12.5326 180.952 13.5195C181.365 14.5065 181.572 15.5049 181.572 16.5148C181.572 18.0296 181.205 19.4297 180.47 20.715C179.759 21.9774 178.795 22.9414 177.578 23.607L182.949 32.6961H176.717L172.035 24.812H168.214V32.6961H162.567ZM168.214 19.8888H173.378C174.044 19.8888 174.617 19.5789 175.099 18.9592C175.581 18.3165 175.822 17.5017 175.822 16.5148C175.822 15.5278 175.547 14.736 174.996 14.1392C174.445 13.5195 173.848 13.2096 173.206 13.2096H168.214V19.8888Z" fill="white"/>
<path d="M197.499 20.2675C197.499 18.7985 197.774 17.3411 198.325 15.8951C198.876 14.4491 199.679 13.1408 200.735 11.9702C201.791 10.7997 203.076 9.87011 204.591 9.18154C206.106 8.47002 207.827 8.11426 209.755 8.11426C212.027 8.11426 214.013 8.60773 215.711 9.59468C217.41 10.5816 218.672 11.867 219.498 13.4507L215.16 16.4804C214.793 15.6311 214.3 14.9655 213.68 14.4835C213.06 13.9786 212.395 13.6343 211.683 13.4507C210.972 13.2441 210.283 13.1408 209.617 13.1408C208.171 13.1408 206.978 13.508 206.037 14.2425C205.096 14.977 204.396 15.9066 203.937 17.0312C203.478 18.1559 203.248 19.3035 203.248 20.4741C203.248 21.7594 203.512 22.9759 204.04 24.1235C204.568 25.2481 205.314 26.1548 206.278 26.8433C207.242 27.5319 208.378 27.8762 209.686 27.8762C210.375 27.8762 211.075 27.7729 211.786 27.5663C212.498 27.3368 213.152 26.9696 213.749 26.4646C214.368 25.9597 214.839 25.3055 215.16 24.5022L219.774 27.222C219.292 28.4385 218.5 29.4714 217.398 30.3206C216.296 31.1469 215.046 31.7895 213.645 32.2486C212.268 32.6847 210.903 32.9027 209.548 32.9027C207.781 32.9027 206.163 32.547 204.694 31.8354C203.225 31.101 201.951 30.137 200.873 28.9435C199.794 27.727 198.956 26.3728 198.359 24.8809C197.785 23.3661 197.499 21.8282 197.499 20.2675Z" fill="white"/>
<path d="M245.37 8.25197V32.6962H239.724V22.6775H229.981V32.6962H224.335V8.25197H229.981V17.7198H239.724V8.25197H245.37Z" fill="white"/>
<path d="M251.777 32.6962V8.25197H257.423V32.6962H251.777Z" fill="white"/>
<path d="M263.82 32.6962V8.25197H274.252C275.422 8.25197 276.489 8.49297 277.453 8.97497C278.44 9.43402 279.29 10.0652 280.001 10.8685C280.713 11.6489 281.264 12.5326 281.654 13.5195C282.044 14.5065 282.239 15.5049 282.239 16.5148C282.239 17.9378 281.906 19.2805 281.241 20.5429C280.598 21.8053 279.691 22.8382 278.521 23.6415C277.35 24.4219 275.985 24.812 274.424 24.812H269.466V32.6962H263.82ZM269.466 19.8888H274.079C274.745 19.8888 275.319 19.6019 275.801 19.0281C276.283 18.4543 276.524 17.6165 276.524 16.5148C276.524 15.3901 276.237 14.5638 275.663 14.0359C275.112 13.4851 274.516 13.2097 273.873 13.2097H269.466V19.8888Z" fill="white"/>
<path d="M187.352 32.6962V8.25197H192.999V32.6962H187.352Z" fill="white"/>
<path d="M89.2292 45.2831V54.4275H88.0897V50.2675H83.1394V54.4275H82V45.2831H83.1394V49.2371H88.0897V45.2831H89.2292Z" fill="white"/>
<path d="M92.359 45.2831L95.081 50.0485L97.8283 45.2831H99.069L95.6507 51.0918V54.4275H94.5113V51.066L91.1056 45.2831H92.359Z" fill="white"/>
<path d="M107.846 52.0706C107.846 52.5428 107.728 52.955 107.492 53.307C107.255 53.6591 106.935 53.9338 106.53 54.1313C106.133 54.3288 105.694 54.4275 105.213 54.4275H100.946V45.2831H105.415C105.837 45.2831 106.2 45.3991 106.504 45.6309C106.817 45.8541 107.053 46.1461 107.213 46.5067C107.382 46.8587 107.466 47.2279 107.466 47.6143C107.466 48.0608 107.352 48.4815 107.125 48.8765C106.905 49.2629 106.589 49.5505 106.175 49.7394C106.69 49.894 107.095 50.1816 107.39 50.6023C107.694 51.0145 107.846 51.5039 107.846 52.0706ZM102.086 46.2877V49.3402H104.947C105.344 49.3402 105.673 49.1942 105.934 48.9023C106.205 48.6017 106.34 48.2411 106.34 47.8204C106.34 47.3911 106.213 47.0305 105.96 46.7385C105.715 46.438 105.403 46.2877 105.023 46.2877H102.086ZM106.694 51.8645C106.694 51.5812 106.631 51.3193 106.504 51.0789C106.386 50.8385 106.221 50.6453 106.01 50.4993C105.808 50.3533 105.572 50.2804 105.301 50.2804H102.086V53.4229H105.213C105.491 53.4229 105.74 53.3499 105.96 53.204C106.188 53.058 106.365 52.8691 106.492 52.6373C106.627 52.3969 106.694 52.1393 106.694 51.8645Z" fill="white"/>
<path d="M110.073 54.4275V45.2831H113.922C114.319 45.2831 114.682 45.369 115.011 45.5407C115.34 45.7039 115.627 45.9271 115.872 46.2105C116.116 46.4852 116.306 46.7986 116.441 47.1507C116.576 47.4941 116.644 47.8461 116.644 48.2068C116.644 48.6275 116.564 49.0268 116.403 49.4046C116.252 49.7824 116.032 50.1043 115.745 50.3705C115.467 50.6367 115.137 50.8213 114.758 50.9243L116.935 54.4275H115.644L113.593 51.1433H111.213V54.4275H110.073ZM111.213 50.1129H113.935C114.247 50.1129 114.517 50.0271 114.745 49.8553C114.981 49.675 115.163 49.4389 115.289 49.147C115.424 48.855 115.492 48.5416 115.492 48.2068C115.492 47.8633 115.416 47.5499 115.264 47.2666C115.112 46.9746 114.914 46.7428 114.669 46.5711C114.424 46.3994 114.154 46.3135 113.859 46.3135H111.213V50.1129Z" fill="white"/>
<path d="M119.027 54.4275V45.2831H120.166V54.4275H119.027Z" fill="white"/>
<path d="M122.949 54.4275V45.2831H126.063C127.026 45.2831 127.827 45.4892 128.469 45.9014C129.119 46.3049 129.604 46.8544 129.925 47.5499C130.246 48.2368 130.406 49.001 130.406 49.8425C130.406 50.7698 130.229 51.5769 129.874 52.2638C129.52 52.9507 129.017 53.483 128.368 53.8608C127.718 54.2386 126.95 54.4275 126.063 54.4275H122.949ZM129.254 49.8425C129.254 49.1556 129.127 48.5459 128.874 48.0136C128.629 47.4812 128.27 47.0648 127.798 46.7643C127.325 46.4638 126.747 46.3135 126.063 46.3135H124.088V53.3972H126.063C126.755 53.3972 127.338 53.2426 127.81 52.9335C128.283 52.6158 128.642 52.1908 128.887 51.6585C129.131 51.1175 129.254 50.5122 129.254 49.8425Z" fill="white"/>
<path d="M138.819 45.2831H139.781L143.453 54.4275H142.237L141.174 51.7486H137.401L136.35 54.4275H135.135L138.819 45.2831ZM140.92 50.8471L139.3 46.6226L137.629 50.8471H140.92Z" fill="white"/>
<path d="M145.285 54.4275V45.2831H148.4C149.362 45.2831 150.164 45.4892 150.805 45.9014C151.455 46.3049 151.94 46.8544 152.261 47.5499C152.582 48.2368 152.742 49.001 152.742 49.8425C152.742 50.7698 152.565 51.5769 152.211 52.2638C151.856 52.9507 151.354 53.483 150.704 53.8608C150.054 54.2386 149.286 54.4275 148.4 54.4275H145.285ZM151.59 49.8425C151.59 49.1556 151.464 48.5459 151.21 48.0136C150.966 47.4812 150.607 47.0648 150.134 46.7643C149.662 46.4638 149.083 46.3135 148.4 46.3135H146.425V53.3972H148.4C149.092 53.3972 149.674 53.2426 150.147 52.9335C150.62 52.6158 150.978 52.1908 151.223 51.6585C151.468 51.1175 151.59 50.5122 151.59 49.8425Z" fill="white"/>
<path d="M154.9 45.2831L157.876 52.9722L160.838 45.2831H162.041L158.395 54.4275H157.356L153.698 45.2831H154.9Z" fill="white"/>
<path d="M169.988 53.3972V54.4275H163.885V45.2831H169.874V46.3135H165.025V49.2758H169.241V50.2417H165.025V53.3972H169.988Z" fill="white"/>
<path d="M172.184 54.4275V45.2831H176.033C176.429 45.2831 176.792 45.369 177.121 45.5407C177.451 45.7039 177.738 45.9271 177.982 46.2105C178.227 46.4852 178.417 46.7986 178.552 47.1507C178.687 47.4941 178.755 47.8461 178.755 48.2068C178.755 48.6275 178.674 49.0268 178.514 49.4046C178.362 49.7824 178.143 50.1043 177.856 50.3705C177.577 50.6367 177.248 50.8213 176.868 50.9243L179.046 54.4275H177.755L175.704 51.1433H173.323V54.4275H172.184ZM173.323 50.1129H176.045C176.358 50.1129 176.628 50.0271 176.856 49.8553C177.092 49.675 177.273 49.4389 177.4 49.147C177.535 48.855 177.603 48.5416 177.603 48.2068C177.603 47.8633 177.527 47.5499 177.375 47.2666C177.223 46.9746 177.024 46.7428 176.78 46.5711C176.535 46.3994 176.265 46.3135 175.969 46.3135H173.323V50.1129Z" fill="white"/>
<path d="M187.546 46.3135H184.444V54.4275H183.304V46.3135H180.203V45.2831H187.546V46.3135Z" fill="white"/>
<path d="M189.473 54.4275V45.2831H190.613V54.4275H189.473Z" fill="white"/>
<path d="M198.675 47.2022C198.464 46.9618 198.139 46.7428 197.7 46.5453C197.261 46.3478 196.771 46.2491 196.231 46.2491C195.539 46.2491 195.028 46.3822 194.699 46.6484C194.37 46.9145 194.205 47.2795 194.205 47.7431C194.205 48.0694 194.29 48.327 194.459 48.5159C194.627 48.7048 194.885 48.8593 195.231 48.9795C195.585 49.0997 196.033 49.2242 196.573 49.353C197.198 49.4904 197.738 49.6579 198.194 49.8553C198.649 50.0528 199 50.319 199.244 50.6539C199.489 50.9801 199.611 51.418 199.611 51.9676C199.611 52.5514 199.468 53.0323 199.181 53.4101C198.894 53.7879 198.502 54.0669 198.004 54.2472C197.514 54.4275 196.961 54.5177 196.345 54.5177C194.944 54.5177 193.724 54.0884 192.686 53.2297L193.231 52.2509C193.416 52.4398 193.665 52.6287 193.978 52.8176C194.298 53.0065 194.661 53.1653 195.066 53.2941C195.48 53.4143 195.915 53.4745 196.37 53.4745C197.012 53.4745 197.51 53.3585 197.864 53.1267C198.219 52.8863 198.396 52.5385 198.396 52.0835C198.396 51.74 198.295 51.4653 198.092 51.2592C197.898 51.0531 197.607 50.8814 197.219 50.744C196.83 50.6066 196.358 50.4693 195.801 50.3319C195.193 50.1773 194.682 50.0099 194.269 49.8296C193.855 49.6407 193.543 49.396 193.332 49.0955C193.129 48.7949 193.028 48.4043 193.028 47.9234C193.028 47.3396 193.167 46.8458 193.446 46.4423C193.724 46.0387 194.108 45.7339 194.598 45.5279C195.087 45.3218 195.64 45.2188 196.256 45.2188C196.856 45.2188 197.4 45.3132 197.89 45.5021C198.388 45.691 198.827 45.9443 199.206 46.262L198.675 47.2022Z" fill="white"/>
<path d="M201.743 54.4275V45.2831H202.883V54.4275H201.743Z" fill="white"/>
<path d="M206.804 47.4211V54.4275H205.665V45.2831H206.627L212.122 52.4312V45.296H213.261V54.4275H212.223L206.804 47.4211Z" fill="white"/>
<path d="M219.649 54.4919C219.058 54.4919 218.505 54.3631 217.99 54.1055C217.484 53.8394 217.041 53.4873 216.661 53.0494C216.281 52.6029 215.986 52.1049 215.775 51.5554C215.564 50.9973 215.458 50.422 215.458 49.8296C215.458 49.2114 215.564 48.6275 215.775 48.078C215.986 47.5199 216.277 47.0262 216.648 46.5968C217.028 46.1675 217.471 45.8327 217.978 45.5923C218.493 45.3433 219.05 45.2188 219.649 45.2188C220.518 45.2188 221.236 45.4034 221.801 45.7726C222.367 46.1418 222.793 46.6226 223.08 47.2151L222.206 47.8333C221.945 47.3009 221.586 46.906 221.13 46.6484C220.674 46.3908 220.172 46.262 219.624 46.262C219.168 46.262 218.754 46.3607 218.383 46.5582C218.011 46.7557 217.691 47.0262 217.421 47.3696C217.159 47.7045 216.956 48.0866 216.813 48.5159C216.678 48.9452 216.61 49.3917 216.61 49.8553C216.61 50.5079 216.745 51.1089 217.016 51.6585C217.294 52.1994 217.67 52.633 218.142 52.9593C218.615 53.2856 219.147 53.4487 219.738 53.4487C220.219 53.4487 220.679 53.3328 221.118 53.1009C221.565 52.8605 221.987 52.4956 222.384 52.0062V50.744H220.447V49.8682H223.346V54.4275H222.384V53.1911C221.607 54.0583 220.696 54.4919 219.649 54.4919Z" fill="white"/>
<path d="M231.886 45.2831H232.848L236.52 54.4275H235.304L234.241 51.7486H230.468L229.417 54.4275H228.202L231.886 45.2831ZM233.988 50.8471L232.367 46.6226L230.696 50.8471H233.988Z" fill="white"/>
<path d="M241.627 54.4919C241.036 54.4919 240.483 54.3631 239.968 54.1055C239.462 53.8394 239.019 53.4873 238.639 53.0494C238.259 52.6029 237.964 52.1049 237.753 51.5554C237.542 50.9973 237.436 50.422 237.436 49.8296C237.436 49.2114 237.542 48.6275 237.753 48.078C237.964 47.5199 238.255 47.0262 238.626 46.5968C239.006 46.1675 239.449 45.8327 239.956 45.5923C240.47 45.3433 241.028 45.2188 241.627 45.2188C242.496 45.2188 243.214 45.4034 243.779 45.7726C244.345 46.1418 244.771 46.6226 245.058 47.2151L244.184 47.8333C243.923 47.3009 243.564 46.906 243.108 46.6484C242.652 46.3908 242.15 46.262 241.601 46.262C241.146 46.262 240.732 46.3607 240.361 46.5582C239.989 46.7557 239.669 47.0262 239.399 47.3696C239.137 47.7045 238.934 48.0866 238.791 48.5159C238.656 48.9452 238.588 49.3917 238.588 49.8553C238.588 50.5079 238.723 51.1089 238.993 51.6585C239.272 52.1994 239.648 52.633 240.12 52.9593C240.593 53.2856 241.125 53.4487 241.715 53.4487C242.196 53.4487 242.656 53.3328 243.095 53.1009C243.543 52.8605 243.965 52.4956 244.361 52.0062V50.744H242.424V49.8682H245.324V54.4275H244.361V53.1911C243.585 54.0583 242.673 54.4919 241.627 54.4919Z" fill="white"/>
<path d="M253.792 53.3972V54.4275H247.689V45.2831H253.678V46.3135H248.829V49.2758H253.045V50.2417H248.829V53.3972H253.792Z" fill="white"/>
<path d="M257.127 47.4211V54.4275H255.988V45.2831H256.95L262.445 52.4312V45.296H263.584V54.4275H262.546L257.127 47.4211Z" fill="white"/>
<path d="M265.781 49.7909C265.781 49.2328 265.874 48.6876 266.06 48.1553C266.254 47.6143 266.533 47.1249 266.895 46.687C267.267 46.2405 267.718 45.8885 268.25 45.6309C268.782 45.3647 269.385 45.2316 270.061 45.2316C270.862 45.2316 271.55 45.4205 272.124 45.7983C272.698 46.1675 273.124 46.6441 273.403 47.2279L272.504 47.8204C272.327 47.434 272.099 47.1292 271.82 46.906C271.55 46.6741 271.255 46.511 270.934 46.4165C270.622 46.3221 270.314 46.2749 270.01 46.2749C269.512 46.2749 269.069 46.3779 268.681 46.584C268.301 46.79 267.98 47.0648 267.718 47.4082C267.457 47.7517 267.258 48.1381 267.123 48.5674C266.997 48.9881 266.933 49.4131 266.933 49.8425C266.933 50.3147 267.009 50.7698 267.161 51.2077C267.322 51.6456 267.541 52.032 267.82 52.3668C268.098 52.7017 268.427 52.9679 268.807 53.1653C269.187 53.3628 269.601 53.4616 270.048 53.4616C270.36 53.4616 270.681 53.4058 271.01 53.2941C271.339 53.1825 271.647 53.0108 271.934 52.779C272.221 52.5385 272.449 52.2294 272.618 51.8516L273.568 52.3797C273.382 52.8348 273.095 53.2212 272.707 53.5388C272.318 53.8565 271.884 54.097 271.403 54.2601C270.93 54.4232 270.462 54.5048 269.997 54.5048C269.381 54.5048 268.816 54.3717 268.301 54.1055C267.786 53.8308 267.339 53.4702 266.959 53.0237C266.587 52.5686 266.296 52.062 266.085 51.5039C265.883 50.9372 265.781 50.3662 265.781 49.7909Z" fill="white"/>
<path d="M275.734 45.2831L278.456 50.0485L281.203 45.2831H282.444L279.025 51.0918V54.4275H277.886V51.066L274.48 45.2831H275.734Z" fill="white"/>
</svg>
